<svg width="63" height="58" viewBox="0 0 63 58" fill="none" xmlns="http://www.w3.org/2000/svg">
<path d="M54.4711 54.5738C54.3488 55.1733 54.0229 55.7121 53.5487 56.0988C53.0745 56.4855 52.4812 56.6963 51.8694 56.6956H11.132C10.5201 56.6963 9.9268 56.4855 9.45262 56.0988C8.97844 55.7121 8.65255 55.1733 8.53018 54.5738L3.65283 30.1738H59.3485L54.4711 54.5738Z" stroke="#7E7E7E" stroke-width="1.5" stroke-linecap="round" stroke-linejoin="round"/>
<path d="M59.3478 22.2178H3.65217C2.18742 22.2178 1 23.4052 1 24.8699V27.5221C1 28.9869 2.18742 30.1743 3.65217 30.1743H59.3478C60.8126 30.1743 62 28.9869 62 27.5221V24.8699C62 23.4052 60.8126 22.2178 59.3478 22.2178Z" stroke="#7E7E7E" stroke-width="1.5" stroke-linecap="round" stroke-linejoin="round"/>
<path d="M8.95703 16.913L24.8701 1" stroke="#7E7E7E" stroke-width="1.5" stroke-linecap="round" stroke-linejoin="round"/>
<path d="M54.0434 16.913L38.1304 1" stroke="#7E7E7E" stroke-width="1.5" stroke-linecap="round" stroke-linejoin="round"/>
<path d="M35.478 35.4775V48.7384" stroke="#7E7E7E" stroke-width="1.5" stroke-linecap="round" stroke-linejoin="round"/>
<path d="M46.0874 35.4775V48.7384" stroke="#7E7E7E" stroke-width="1.5" stroke-linecap="round" stroke-linejoin="round"/>
<path d="M27.522 35.4775V48.7384" stroke="#7E7E7E" stroke-width="1.5" stroke-linecap="round" stroke-linejoin="round"/>
<path d="M16.9126 35.4775V48.7384" stroke="#7E7E7E" stroke-width="1.5" stroke-linecap="round" stroke-linejoin="round"/>
</svg>
