<svg width="54" height="61" viewBox="0 0 54 61" fill="none" xmlns="http://www.w3.org/2000/svg">
<path d="M52.5 59.9989V57.5557C52.5088 55.9028 51.8792 54.3103 50.7425 53.1102C49.6057 51.9102 48.0496 51.1953 46.3986 51.1146H41.3945V40.5644C41.3945 39.8281 41.102 39.1219 40.5814 38.6013C40.0607 38.0806 39.3545 37.7881 38.6182 37.7881C37.8818 37.7881 37.1757 38.0806 36.655 38.6013C36.1343 39.1219 35.8418 39.8281 35.8418 40.5644V56.6673L32.4636 51.9142C32.1752 51.3669 31.6813 50.9567 31.0904 50.7736C30.4996 50.5905 29.8602 50.6497 29.313 50.938C28.7657 51.2264 28.3554 51.7203 28.1724 52.3111C27.9893 52.902 28.0484 53.5414 28.3368 54.0886L31.4463 59.9989" stroke="#7E7E7E" stroke-width="1.5" stroke-linecap="round" stroke-linejoin="round"/>
<path d="M24.7831 59.9993H5.85721C4.67907 59.9993 3.54919 59.5313 2.71612 58.6983C1.88305 57.8652 1.41504 56.7353 1.41504 55.5572V5.99295C1.41504 4.81481 1.88305 3.68493 2.71612 2.85186C3.54919 2.01879 4.67907 1.55078 5.85721 1.55078H30.2891C31.4673 1.55078 32.5972 2.01879 33.4302 2.85186C34.2633 3.68493 34.7313 4.81481 34.7313 5.99295V33.393" stroke="#7E7E7E" stroke-width="1.5" stroke-linecap="round" stroke-linejoin="round"/>
<path d="M8.31836 46.1924H19.4238" stroke="#7E7E7E" stroke-width="1.5" stroke-linecap="round" stroke-linejoin="round"/>
<path d="M12.9209 2.93164H24.0263" stroke="#7E7E7E" stroke-width="1.5" stroke-linecap="round" stroke-linejoin="round"/>
<path d="M8.31836 50.7949H19.4238" stroke="#7E7E7E" stroke-width="1.5" stroke-linecap="round" stroke-linejoin="round"/>
<path d="M17.0027 15.8174C14.4554 15.8174 12.0124 16.8293 10.2111 18.6305C8.40987 20.4318 7.39795 22.8748 7.39795 25.4221V33.5862C7.39795 34.7325 7.85332 35.8318 8.66387 36.6424C9.47443 37.4529 10.5738 37.9083 11.7201 37.9083C12.8664 37.9083 13.9657 37.4529 14.7763 36.6424C15.5869 35.8318 16.0422 34.7325 16.0422 33.5862C16.0422 32.4399 16.4976 31.3405 17.3081 30.5299C18.1187 29.7194 19.2181 29.264 20.3644 29.264H22.7655C24.5487 29.264 26.2588 28.5557 27.5196 27.2948C28.7805 26.0339 29.4889 24.3238 29.4889 22.5407C29.4889 20.7576 28.7805 19.0475 27.5196 17.7866C26.2588 16.5257 24.5487 15.8174 22.7655 15.8174H17.0027Z" stroke="#7E7E7E" stroke-width="1.5" stroke-linecap="round" stroke-linejoin="round"/>
<path d="M17.9629 18.6992C15.9251 18.6992 13.9707 19.5088 12.5297 20.9498C11.0887 22.3907 10.2791 24.3451 10.2791 26.383V27.8237C10.2282 28.5215 10.4501 29.2118 10.898 29.7492C11.3459 30.2867 11.9848 30.6294 12.6803 30.7051C14.6013 30.7051 12.7937 26.383 19.4036 26.383H22.7653C23.7842 26.383 24.7614 25.9782 25.4819 25.2577C26.2024 24.5373 26.6072 23.5601 26.6072 22.5411C26.6072 21.5222 26.2024 20.545 25.4819 19.8245C24.7614 19.104 23.7842 18.6992 22.7653 18.6992H17.9629Z" stroke="#7E7E7E" stroke-width="1.5" stroke-linecap="round" stroke-linejoin="round"/>
<path d="M11.7202 34.5459C12.2507 34.5459 12.6807 34.1159 12.6807 33.5855C12.6807 33.055 12.2507 32.625 11.7202 32.625C11.1898 32.625 10.7598 33.055 10.7598 33.5855C10.7598 34.1159 11.1898 34.5459 11.7202 34.5459Z" stroke="#7E7E7E" stroke-width="1.5" stroke-linecap="round" stroke-linejoin="round"/>
</svg>
