<svg width="26" height="54" viewBox="0 0 26 54" fill="none" xmlns="http://www.w3.org/2000/svg">
<path d="M12.014 48.0217L7.88061 46.2998C3.31503 44.3965 -0.392972 39.1525 1.51029 34.5869L7.19096 36.3088C8.27677 36.7611 9.26283 37.4229 10.0929 38.2564C10.9229 39.0898 11.5806 40.0786 12.0285 41.1663C12.4764 42.2539 12.7056 43.4192 12.7031 44.5954C12.7006 45.7717 12.4665 46.9359 12.014 48.0217V48.0217Z" stroke="#7E7E7E" stroke-width="1.5" stroke-linecap="round" stroke-linejoin="round"/>
<path d="M13.3986 48.0217L17.532 46.2998C22.0976 44.3965 25.8168 39.1525 23.9023 34.5869L18.2217 36.3088C17.1359 36.7611 16.1498 37.4229 15.3198 38.2564C14.4897 39.0898 13.832 40.0786 13.3841 41.1663C12.9363 42.2539 12.707 43.4192 12.7095 44.5954C12.712 45.7717 12.9461 46.9359 13.3986 48.0217V48.0217Z" stroke="#7E7E7E" stroke-width="1.5" stroke-linecap="round" stroke-linejoin="round"/>
<path d="M12.014 37.9455L7.88061 36.2236C3.31503 34.3204 -0.392972 29.0763 1.51029 24.5107L7.19096 26.2326C8.27677 26.685 9.26283 27.3468 10.0929 28.1802C10.9229 29.0137 11.5806 30.0025 12.0285 31.0901C12.4764 32.1778 12.7056 33.343 12.7031 34.5193C12.7006 35.6955 12.4665 36.8598 12.014 37.9455Z" stroke="#7E7E7E" stroke-width="1.5" stroke-linecap="round" stroke-linejoin="round"/>
<path d="M13.3986 37.9455L17.532 36.2236C22.0976 34.3204 25.8168 29.0763 23.9023 24.5107L18.2217 26.2326C17.1359 26.685 16.1498 27.3468 15.3198 28.1802C14.4897 29.0137 13.832 30.0025 13.3841 31.0901C12.9363 32.1778 12.707 33.343 12.7095 34.5193C12.712 35.6955 12.9461 36.8598 13.3986 37.9455V37.9455Z" stroke="#7E7E7E" stroke-width="1.5" stroke-linecap="round" stroke-linejoin="round"/>
<path d="M12.014 27.8694L7.88061 26.1475C3.31503 24.2442 -0.392972 19.0002 1.51029 14.4346L7.19096 16.1565C8.27677 16.6088 9.26283 17.2706 10.0929 18.1041C10.9229 18.9375 11.5806 19.9263 12.0285 21.0139C12.4764 22.1016 12.7056 23.2668 12.7031 24.4431C12.7006 25.6193 12.4665 26.7836 12.014 27.8694Z" stroke="#7E7E7E" stroke-width="1.5" stroke-linecap="round" stroke-linejoin="round"/>
<path d="M13.3986 27.8694L17.532 26.1475C22.0976 24.2442 25.8168 19.0002 23.9023 14.4346L18.2217 16.1565C17.1359 16.6088 16.1498 17.2706 15.3198 18.1041C14.4897 18.9375 13.832 19.9263 13.3841 21.0139C12.9363 22.1016 12.707 23.2668 12.7095 24.4431C12.712 25.6193 12.9461 26.7836 13.3986 27.8694V27.8694Z" stroke="#7E7E7E" stroke-width="1.5" stroke-linecap="round" stroke-linejoin="round"/>
<path d="M12.7061 20.0322V52.4996" stroke="#7E7E7E" stroke-width="1.5" stroke-linecap="round" stroke-linejoin="round"/>
<path d="M23.9019 14.4352V7.71777" stroke="#7E7E7E" stroke-width="1.5" stroke-linecap="round" stroke-linejoin="round"/>
<path d="M1.51074 14.4352V7.71777" stroke="#7E7E7E" stroke-width="1.5" stroke-linecap="round" stroke-linejoin="round"/>
<path d="M17.1845 12.1954C17.1845 15.2876 12.7063 20.0323 12.7063 20.0323C12.7063 20.0323 8.22803 15.2876 8.22803 12.1954C8.22803 9.10312 12.7063 4.3584 12.7063 4.3584C12.7063 4.3584 17.1845 9.10312 17.1845 12.1954Z" stroke="#7E7E7E" stroke-width="1.5" stroke-linecap="round" stroke-linejoin="round"/>
<path d="M12.7061 4.3587V1" stroke="#7E7E7E" stroke-width="1.5" stroke-linecap="round" stroke-linejoin="round"/>
</svg>
