<svg width="177" height="60" viewBox="0 0 177 60" fill="none" xmlns="http://www.w3.org/2000/svg">
<path d="M59.352 20.848C59.352 20.584 59.208 20.44 58.944 20.44H47.28C47.016 20.44 46.872 20.584 46.872 20.848V36.592C46.872 36.856 47.016 37 47.28 37H50.304C50.568 37 50.712 36.856 50.712 36.592V31.264H58.056C58.32 31.264 58.464 31.12 58.464 30.856V28.12C58.464 27.856 58.32 27.712 58.056 27.712H50.712V24.016H58.944C59.208 24.016 59.352 23.872 59.352 23.608V20.848ZM61.8347 26.728C60.7307 27.928 60.1787 29.416 60.1787 31.168C60.1787 32.92 60.7307 34.408 61.8347 35.584C62.9387 36.784 64.2347 37.384 65.6987 37.384C67.2107 37.384 68.4107 36.832 69.2507 35.728V36.592C69.2507 36.856 69.3947 37 69.6587 37H72.5147C72.7787 37 72.9227 36.856 72.9227 36.592V25.72C72.9227 25.456 72.7787 25.312 72.5147 25.312H69.6587C69.3947 25.312 69.2507 25.456 69.2507 25.72V26.608C68.4107 25.48 67.2107 24.928 65.6987 24.928C64.2347 24.928 62.9387 25.528 61.8347 26.728ZM63.8987 31.168C63.8987 30.328 64.1627 29.632 64.6667 29.08C65.1707 28.528 65.7947 28.264 66.5867 28.264C67.3787 28.264 68.0027 28.528 68.5067 29.08C69.0107 29.632 69.2507 30.328 69.2507 31.168C69.2507 32.008 69.0107 32.704 68.5067 33.232C68.0027 33.784 67.3787 34.048 66.5867 34.048C65.7947 34.048 65.1707 33.784 64.6667 33.232C64.1627 32.68 63.8987 32.008 63.8987 31.168ZM82.2598 24.928C81.2278 24.928 80.3158 25.648 79.7638 26.8V25.72C79.7638 25.456 79.6198 25.312 79.3558 25.312H76.4998C76.2358 25.312 76.0918 25.456 76.0918 25.72V36.592C76.0918 36.856 76.2358 37 76.4998 37H79.3558C79.6198 37 79.7638 36.856 79.7638 36.592V30.448C79.7638 28.984 80.4598 28.144 81.5398 28.144C81.8758 28.144 82.2118 28.216 82.5238 28.384C82.7878 28.552 82.9558 28.48 83.0278 28.192L83.7238 25.648C83.7958 25.384 83.6998 25.216 83.4598 25.144C83.0998 25 82.7158 24.928 82.2598 24.928ZM99.6559 24.928C97.9039 24.928 96.6079 25.624 95.8159 27.016C95.1919 25.624 94.0159 24.928 92.2879 24.928C90.7759 24.928 89.6479 25.528 88.9279 26.752V25.72C88.9279 25.456 88.7839 25.312 88.5199 25.312H85.6639C85.3999 25.312 85.2559 25.456 85.2559 25.72V36.592C85.2559 36.856 85.3999 37 85.6639 37H88.5199C88.7839 37 88.9279 36.856 88.9279 36.592V30.016C89.0479 28.648 89.8399 27.952 90.8959 27.952C92.0239 27.952 92.5999 28.6 92.5999 29.872V36.592C92.5999 36.856 92.7439 37 93.0079 37H95.8639C96.1279 37 96.2719 36.856 96.2719 36.592V30.424C96.2959 28.792 97.1359 27.952 98.3119 27.952C99.3919 27.952 99.9439 28.6 99.9439 29.872V36.592C99.9439 36.856 100.088 37 100.352 37H103.208C103.472 37 103.616 36.856 103.616 36.592V29.464C103.616 26.296 101.936 24.928 99.6559 24.928ZM105.865 20.44C105.601 20.44 105.457 20.584 105.457 20.848V23.608C105.457 23.872 105.601 24.016 105.865 24.016H110.233V36.592C110.233 36.856 110.377 37 110.641 37H113.641C113.905 37 114.049 36.856 114.049 36.592V24.016H118.417C118.681 24.016 118.825 23.872 118.825 23.608V20.848C118.825 20.584 118.681 20.44 118.417 20.44H105.865ZM126.486 24.928C125.454 24.928 124.542 25.648 123.99 26.8V25.72C123.99 25.456 123.846 25.312 123.582 25.312H120.726C120.462 25.312 120.318 25.456 120.318 25.72V36.592C120.318 36.856 120.462 37 120.726 37H123.582C123.846 37 123.99 36.856 123.99 36.592V30.448C123.99 28.984 124.686 28.144 125.766 28.144C126.102 28.144 126.438 28.216 126.75 28.384C127.014 28.552 127.182 28.48 127.254 28.192L127.95 25.648C128.022 25.384 127.926 25.216 127.686 25.144C127.326 25 126.942 24.928 126.486 24.928ZM129.944 26.728C128.84 27.928 128.288 29.416 128.288 31.168C128.288 32.92 128.84 34.408 129.944 35.584C131.048 36.784 132.344 37.384 133.808 37.384C135.32 37.384 136.52 36.832 137.36 35.728V36.592C137.36 36.856 137.504 37 137.768 37H140.624C140.888 37 141.032 36.856 141.032 36.592V25.72C141.032 25.456 140.888 25.312 140.624 25.312H137.768C137.504 25.312 137.36 25.456 137.36 25.72V26.608C136.52 25.48 135.32 24.928 133.808 24.928C132.344 24.928 131.048 25.528 129.944 26.728ZM132.008 31.168C132.008 30.328 132.272 29.632 132.776 29.08C133.28 28.528 133.904 28.264 134.696 28.264C135.488 28.264 136.112 28.528 136.616 29.08C137.12 29.632 137.36 30.328 137.36 31.168C137.36 32.008 137.12 32.704 136.616 33.232C136.112 33.784 135.488 34.048 134.696 34.048C133.904 34.048 133.28 33.784 132.776 33.232C132.272 32.68 132.008 32.008 132.008 31.168ZM143.241 31.144C143.241 32.896 143.817 34.384 144.993 35.584C146.169 36.784 147.657 37.384 149.505 37.384C151.353 37.384 152.889 36.736 154.161 35.416C154.233 35.32 154.281 35.224 154.305 35.104C154.281 35.032 154.233 34.936 154.161 34.84L152.337 32.968C152.241 32.872 152.145 32.824 152.073 32.824C151.953 32.824 151.857 32.896 151.761 33.016C151.185 33.712 150.465 34.048 149.577 34.048C148.041 34.048 146.961 32.8 146.961 31.144C146.961 29.512 148.065 28.264 149.577 28.264C150.465 28.264 151.185 28.6 151.761 29.296C151.857 29.416 151.953 29.488 152.073 29.488C152.145 29.488 152.241 29.44 152.337 29.344L154.161 27.448C154.233 27.352 154.281 27.256 154.305 27.16C154.281 27.064 154.233 26.968 154.161 26.872C152.913 25.576 151.353 24.928 149.505 24.928C147.657 24.928 146.169 25.528 144.993 26.704C143.817 27.904 143.241 29.392 143.241 31.144ZM155.007 31.24C155.007 32.992 155.607 34.432 156.807 35.608C158.007 36.784 159.495 37.384 161.247 37.384C163.311 37.384 165.063 36.736 166.527 35.464C166.623 35.368 166.671 35.272 166.671 35.176C166.671 35.08 166.623 34.984 166.551 34.888L164.847 32.968C164.751 32.872 164.655 32.824 164.583 32.8C164.463 32.824 164.367 32.872 164.271 32.968C163.503 33.688 162.543 34.048 161.415 34.048C160.047 34.048 159.039 33.16 158.775 31.84H166.815C167.079 31.84 167.223 31.696 167.247 31.432V31.36C167.247 29.464 166.671 27.904 165.543 26.704C164.415 25.528 162.975 24.928 161.223 24.928C159.471 24.928 157.983 25.528 156.807 26.752C155.607 27.976 155.007 29.488 155.007 31.24ZM158.919 30.04C159.279 28.984 160.143 28.288 161.223 28.288C162.279 28.288 163.119 28.984 163.479 30.04H158.919ZM175.471 24.928C174.439 24.928 173.527 25.648 172.975 26.8V25.72C172.975 25.456 172.831 25.312 172.567 25.312H169.711C169.447 25.312 169.303 25.456 169.303 25.72V36.592C169.303 36.856 169.447 37 169.711 37H172.567C172.831 37 172.975 36.856 172.975 36.592V30.448C172.975 28.984 173.671 28.144 174.751 28.144C175.087 28.144 175.423 28.216 175.735 28.384C175.999 28.552 176.167 28.48 176.239 28.192L176.935 25.648C177.007 25.384 176.911 25.216 176.671 25.144C176.311 25 175.927 24.928 175.471 24.928Z" fill="#054A29"/>
<path d="M7.32568 38.6133C4.86463 38.6133 2.46082 39.1298 0.343171 39.9906C-0.000231544 40.1054 -0.114699 40.5645 0.17147 40.8514C2.91869 44.0078 6.40994 46.4182 10.4735 47.7955C11.9044 45.0982 13.9076 42.7453 16.3114 40.9088C13.5642 39.4167 10.5308 38.6133 7.32568 38.6133Z" fill="#054A29"/>
<path d="M28.6164 38.6133C25.4113 38.6133 22.3779 39.4167 19.7452 40.8514C19.5162 40.9662 19.3445 41.081 19.1156 41.1958C18.715 41.4253 18.3143 41.7123 17.9137 41.9418C15.5671 43.6061 13.6212 45.7295 12.2476 48.2546C14.079 48.7137 15.9677 48.9433 17.9137 48.9433C19.8596 48.9433 21.7484 48.7137 23.5798 48.2546C23.9232 48.1972 24.2094 48.0824 24.5528 47.9677C24.839 47.8529 25.1824 47.7955 25.4685 47.6807C29.4749 46.3034 33.0234 43.8931 35.7706 40.7367C35.9995 40.4497 35.8851 40.048 35.5989 39.8758C33.4813 39.0724 31.1347 38.6133 28.6164 38.6133Z" fill="#2A9134"/>
<path d="M17.9139 14.5093C18.429 14.5093 18.8869 14.0502 18.8869 13.5337V9.97561C18.8869 9.45911 18.429 9 17.9139 9C17.3988 9 16.9409 9.45911 16.9409 9.97561V13.5337C16.9409 14.0502 17.3988 14.5093 17.9139 14.5093Z" fill="#FFA900"/>
<path d="M12.6481 14.9108C12.8198 15.2551 13.1632 15.4847 13.5066 15.4847C13.621 15.4847 13.7927 15.4847 13.9072 15.4273C14.4223 15.1977 14.594 14.6238 14.4223 14.1647L12.9915 10.8936C12.7625 10.3771 12.1902 10.2049 11.7323 10.3771C11.2172 10.6066 11.0455 11.1805 11.2172 11.6396L12.6481 14.9108Z" fill="#FFA900"/>
<path d="M10.5306 16.4606L7.89786 14.0503C7.49722 13.706 6.86765 13.7634 6.52425 14.1651C6.18085 14.5668 6.18085 15.1981 6.58148 15.5424L9.21423 17.9528C9.38593 18.1249 9.61487 18.1823 9.8438 18.1823C10.13 18.1823 10.3589 18.0675 10.5878 17.838C10.9312 17.4363 10.9312 16.805 10.5306 16.4606Z" fill="#FFA900"/>
<path d="M3.94887 20.9373L7.32566 22.0277C7.44013 22.0851 7.5546 22.0851 7.61183 22.0851C8.01247 22.0851 8.4131 21.7981 8.52757 21.3964C8.69927 20.8799 8.4131 20.3634 7.898 20.1912L4.57845 19.1008C4.06334 18.9287 3.54824 19.2156 3.37654 19.7321C3.20484 20.1912 3.491 20.7651 3.94887 20.9373Z" fill="#FFA900"/>
<path d="M8.18397 25.5284C8.12674 25.0119 7.66887 24.6102 7.09653 24.6676L3.54804 25.0119C3.03294 25.0693 2.6323 25.5284 2.68953 26.1023C2.74677 26.6188 3.1474 26.9631 3.66251 26.9631C3.71974 26.9631 3.71974 26.9631 3.77698 26.9631L7.32547 26.6188C7.84057 26.504 8.2412 26.0449 8.18397 25.5284Z" fill="#FFA900"/>
<path d="M8.12666 29.0286L5.03604 30.8077C4.57817 31.0946 4.40647 31.6685 4.69264 32.1276C4.86434 32.4145 5.20774 32.5867 5.55114 32.5867C5.72285 32.5867 5.89455 32.5293 6.00901 32.4719L9.09963 30.6929C9.5575 30.4059 9.7292 29.832 9.44304 29.3729C9.2141 28.9712 8.58453 28.799 8.12666 29.0286Z" fill="#FFA900"/>
<path d="M30.9629 30.7504L27.8723 28.9713C27.4144 28.6844 26.8421 28.8566 26.5559 29.3157C26.2698 29.7748 26.4415 30.3487 26.8993 30.6356L29.9899 32.4147C30.1616 32.5294 30.3333 32.5294 30.505 32.5294C30.8484 32.5294 31.1918 32.3573 31.3635 32.0703C31.5925 31.6112 31.4208 30.9799 30.9629 30.7504Z" fill="#FFA900"/>
<path d="M32.3937 24.8964L28.9025 24.4947C28.3874 24.4373 27.8723 24.8391 27.815 25.3556C27.7578 25.8721 28.1584 26.3886 28.6735 26.4459L32.222 26.7903C32.2793 26.7903 32.2793 26.7903 32.3365 26.7903C32.8516 26.7903 33.2522 26.4459 33.3095 25.9294C33.3095 25.4129 32.9661 24.9538 32.3937 24.8964Z" fill="#FFA900"/>
<path d="M27.357 21.2812C27.4715 21.6829 27.8722 21.9698 28.2728 21.9698C28.3873 21.9698 28.4445 21.9698 28.559 21.9124L31.9357 20.822C32.4508 20.6499 32.737 20.1334 32.5653 19.6169C32.3936 19.1004 31.8785 18.8134 31.3634 18.9856L27.9866 20.076C27.4715 20.2482 27.1853 20.7647 27.357 21.2812Z" fill="#FFA900"/>
<path d="M29.3032 15.4276C29.7038 15.0833 29.7611 14.452 29.3604 14.0503C29.017 13.6485 28.3874 13.5912 27.9868 13.9929L25.3541 16.4032C24.9534 16.7475 24.8962 17.3788 25.2968 17.7805C25.4685 18.0101 25.7547 18.1249 26.0409 18.1249C26.2698 18.1249 26.4987 18.0675 26.6704 17.8953L29.3032 15.4276Z" fill="#FFA900"/>
<path d="M21.9203 15.313C22.0347 15.3704 22.2064 15.3704 22.3209 15.3704C22.6643 15.3704 23.0649 15.1409 23.1794 14.7965L24.6102 11.5254C24.8392 11.0089 24.6102 10.435 24.0951 10.2628C23.58 10.0333 23.0077 10.2628 22.836 10.7793L21.4052 14.0505C21.2335 14.567 21.4624 15.1409 21.9203 15.313Z" fill="#FFA900"/>
<path d="M17.971 16.5752C13.5068 16.5752 9.78662 20.1333 9.78662 24.4949C9.78662 26.2165 10.359 27.8808 11.4464 29.2007L17.6276 37.2926C17.7421 37.4647 18.0855 37.5221 18.2572 37.4073C18.3144 37.3499 18.3144 37.3499 18.3717 37.2926L24.5529 29.2007C25.5831 27.8234 26.2127 26.2165 26.2127 24.4949C26.1555 20.1333 22.4925 16.5752 17.971 16.5752ZM17.3415 27.5938C15.6245 27.2495 14.4798 25.5852 14.8232 23.8636C15.1666 22.1419 16.8264 20.9941 18.5434 21.3385C19.8025 21.6254 20.8327 22.5436 21.0617 23.8636C21.4051 25.5852 20.2604 27.2495 18.5434 27.5938C18.1427 27.6512 17.7421 27.6512 17.3415 27.5938Z" fill="#FFA900"/>
</svg>
