<svg width="36" height="40" viewBox="0 0 36 40" fill="none" xmlns="http://www.w3.org/2000/svg">
<path d="M7.32568 29.6133C4.86463 29.6133 2.46082 30.1298 0.343171 30.9906C-0.000231544 31.1054 -0.114699 31.5645 0.17147 31.8514C2.91869 35.0078 6.40994 37.4182 10.4735 38.7955C11.9044 36.0982 13.9076 33.7453 16.3114 31.9088C13.5642 30.4167 10.5308 29.6133 7.32568 29.6133Z" fill="#054A29"/>
<path d="M28.6164 29.6133C25.4113 29.6133 22.3779 30.4167 19.7452 31.8514C19.5162 31.9662 19.3445 32.081 19.1156 32.1958C18.715 32.4253 18.3143 32.7123 17.9137 32.9418C15.5671 34.6061 13.6212 36.7295 12.2476 39.2546C14.079 39.7137 15.9677 39.9433 17.9137 39.9433C19.8596 39.9433 21.7484 39.7137 23.5798 39.2546C23.9232 39.1972 24.2094 39.0824 24.5528 38.9677C24.839 38.8529 25.1824 38.7955 25.4685 38.6807C29.4749 37.3034 33.0234 34.8931 35.7706 31.7367C35.9995 31.4497 35.8851 31.048 35.5989 30.8758C33.4813 30.0724 31.1347 29.6133 28.6164 29.6133Z" fill="#2A9134"/>
<path d="M17.9139 5.50933C18.429 5.50933 18.8869 5.05022 18.8869 4.53372V0.97561C18.8869 0.459111 18.429 0 17.9139 0C17.3988 0 16.9409 0.459111 16.9409 0.97561V4.53372C16.9409 5.05022 17.3988 5.50933 17.9139 5.50933Z" fill="#FFA900"/>
<path d="M12.6481 5.91078C12.8198 6.25511 13.1632 6.48467 13.5066 6.48467C13.621 6.48467 13.7927 6.48467 13.9072 6.42728C14.4223 6.19772 14.594 5.62383 14.4223 5.16472L12.9915 1.89356C12.7625 1.37706 12.1902 1.2049 11.7323 1.37706C11.2172 1.60662 11.0455 2.18051 11.2172 2.63962L12.6481 5.91078Z" fill="#FFA900"/>
<path d="M10.5306 7.46064L7.89786 5.05031C7.49722 4.70598 6.86765 4.76337 6.52425 5.16509C6.18085 5.56681 6.18085 6.19809 6.58148 6.54242L9.21423 8.95275C9.38593 9.12492 9.61487 9.18231 9.8438 9.18231C10.13 9.18231 10.3589 9.06753 10.5878 8.83798C10.9312 8.43625 10.9312 7.80498 10.5306 7.46064Z" fill="#FFA900"/>
<path d="M3.94887 11.9373L7.32566 13.0277C7.44013 13.0851 7.5546 13.0851 7.61183 13.0851C8.01247 13.0851 8.4131 12.7981 8.52757 12.3964C8.69927 11.8799 8.4131 11.3634 7.898 11.1912L4.57845 10.1008C4.06334 9.92867 3.54824 10.2156 3.37654 10.7321C3.20484 11.1912 3.491 11.7651 3.94887 11.9373Z" fill="#FFA900"/>
<path d="M8.18397 16.5284C8.12674 16.0119 7.66887 15.6102 7.09653 15.6676L3.54804 16.0119C3.03294 16.0693 2.6323 16.5284 2.68953 17.1023C2.74677 17.6188 3.1474 17.9631 3.66251 17.9631C3.71974 17.9631 3.71974 17.9631 3.77698 17.9631L7.32547 17.6188C7.84057 17.504 8.2412 17.0449 8.18397 16.5284Z" fill="#FFA900"/>
<path d="M8.12666 20.0286L5.03604 21.8077C4.57817 22.0946 4.40647 22.6685 4.69264 23.1276C4.86434 23.4145 5.20774 23.5867 5.55114 23.5867C5.72285 23.5867 5.89455 23.5293 6.00901 23.4719L9.09963 21.6929C9.5575 21.4059 9.7292 20.832 9.44304 20.3729C9.2141 19.9712 8.58453 19.799 8.12666 20.0286Z" fill="#FFA900"/>
<path d="M30.9629 21.7504L27.8723 19.9713C27.4144 19.6844 26.8421 19.8566 26.5559 20.3157C26.2698 20.7748 26.4415 21.3487 26.8993 21.6356L29.9899 23.4147C30.1616 23.5294 30.3333 23.5294 30.505 23.5294C30.8484 23.5294 31.1918 23.3573 31.3635 23.0703C31.5925 22.6112 31.4208 21.9799 30.9629 21.7504Z" fill="#FFA900"/>
<path d="M32.3937 15.8964L28.9025 15.4947C28.3874 15.4373 27.8723 15.8391 27.815 16.3556C27.7578 16.8721 28.1584 17.3886 28.6735 17.4459L32.222 17.7903C32.2793 17.7903 32.2793 17.7903 32.3365 17.7903C32.8516 17.7903 33.2522 17.4459 33.3095 16.9294C33.3095 16.4129 32.9661 15.9538 32.3937 15.8964Z" fill="#FFA900"/>
<path d="M27.357 12.2812C27.4715 12.6829 27.8722 12.9698 28.2728 12.9698C28.3873 12.9698 28.4445 12.9698 28.559 12.9124L31.9357 11.822C32.4508 11.6499 32.737 11.1334 32.5653 10.6169C32.3936 10.1004 31.8785 9.81343 31.3634 9.9856L27.9866 11.076C27.4715 11.2482 27.1853 11.7647 27.357 12.2812Z" fill="#FFA900"/>
<path d="M29.3032 6.4276C29.7038 6.08327 29.7611 5.45199 29.3604 5.05027C29.017 4.64855 28.3874 4.59116 27.9868 4.99288L25.3541 7.40321C24.9534 7.74754 24.8962 8.37882 25.2968 8.78054C25.4685 9.0101 25.7547 9.12487 26.0409 9.12487C26.2698 9.12487 26.4987 9.06748 26.6704 8.89532L29.3032 6.4276Z" fill="#FFA900"/>
<path d="M21.9203 6.31303C22.0347 6.37042 22.2064 6.37042 22.3209 6.37042C22.6643 6.37042 23.0649 6.14086 23.1794 5.79653L24.6102 2.52536C24.8392 2.00887 24.6102 1.43498 24.0951 1.26281C23.58 1.03326 23.0077 1.26281 22.836 1.77931L21.4052 5.05047C21.2335 5.56697 21.4624 6.14086 21.9203 6.31303Z" fill="#FFA900"/>
<path d="M17.971 7.5752C13.5068 7.5752 9.78662 11.1333 9.78662 15.4949C9.78662 17.2165 10.359 18.8808 11.4464 20.2007L17.6276 28.2926C17.7421 28.4647 18.0855 28.5221 18.2572 28.4073C18.3144 28.3499 18.3144 28.3499 18.3717 28.2926L24.5529 20.2007C25.5831 18.8234 26.2127 17.2165 26.2127 15.4949C26.1555 11.1333 22.4925 7.5752 17.971 7.5752ZM17.3415 18.5938C15.6245 18.2495 14.4798 16.5852 14.8232 14.8636C15.1666 13.1419 16.8264 11.9941 18.5434 12.3385C19.8025 12.6254 20.8327 13.5436 21.0617 14.8636C21.4051 16.5852 20.2604 18.2495 18.5434 18.5938C18.1427 18.6512 17.7421 18.6512 17.3415 18.5938Z" fill="#FFA900"/>
</svg>
