<?xml version="1.0" standalone="no"?>
<!DOCTYPE svg PUBLIC "-//W3C//DTD SVG 20010904//EN"
 "http://www.w3.org/TR/2001/REC-SVG-20010904/DTD/svg10.dtd">
<svg version="1.0" xmlns="http://www.w3.org/2000/svg"
 width="640.000000pt" height="640.000000pt" viewBox="0 0 640.000000 640.000000"
 preserveAspectRatio="xMidYMid meet">
<metadata>
Created by potrace 1.11, written by Peter Selinger 2001-2013
</metadata>
<g transform="translate(0.000000,640.000000) scale(0.100000,-0.100000)"
fill="#000000" stroke="none">
<path d="M3125 6384 c-46 -24 -74 -54 -86 -93 -6 -23 -9 -153 -7 -353 3 -302
4 -318 24 -344 39 -53 71 -69 134 -69 52 0 63 4 90 30 62 59 62 58 62 405 0
264 -2 321 -15 346 -42 81 -131 115 -202 78z"/>
<path d="M4045 6194 c-16 -8 -35 -21 -42 -27 -9 -10 -99 -207 -222 -492 -52
-119 -56 -157 -22 -225 39 -80 175 -90 244 -19 9 10 17 20 17 23 0 2 16 39 35
80 19 42 35 78 35 80 0 4 37 87 88 196 9 19 16 37 17 40 0 5 50 122 67 156 14
29 5 107 -16 138 -37 57 -139 83 -201 50z"/>
<path d="M2184 6171 c-80 -49 -99 -139 -50 -238 14 -29 26 -56 26 -59 0 -4 11
-30 24 -58 45 -94 124 -276 120 -276 -5 0 54 -110 69 -128 33 -41 129 -61 177
-36 55 27 90 88 85 150 -3 38 -237 587 -260 611 -52 52 -136 67 -191 34z"/>
<path d="M4864 5639 c-17 -5 -43 -20 -58 -34 -15 -14 -29 -25 -31 -25 -2 0
-24 -19 -48 -42 -24 -24 -80 -75 -123 -115 -259 -234 -281 -259 -278 -310 1
-13 2 -34 3 -46 3 -63 96 -131 170 -126 46 4 72 20 151 95 36 34 79 74 95 89
171 154 295 281 306 312 38 116 -70 233 -187 202z"/>
<path d="M1423 5613 c-12 -6 -23 -9 -23 -6 0 3 -13 -10 -30 -28 -31 -35 -51
-86 -45 -116 2 -10 4 -28 4 -40 1 -25 44 -71 200 -213 151 -137 232 -212 257
-236 90 -86 241 -33 264 94 13 75 -2 99 -136 222 -33 30 -105 96 -160 146 -54
50 -119 110 -144 133 -63 57 -130 73 -187 44z"/>
<path d="M3077 5184 c-2 -2 -29 -6 -60 -8 -32 -3 -61 -7 -65 -10 -4 -2 -25 -7
-47 -10 -95 -15 -366 -127 -416 -172 -8 -8 -19 -14 -22 -14 -15 0 -137 -100
-208 -170 -157 -156 -277 -357 -325 -542 -1 -5 -2 -9 -4 -10 -1 -2 -3 -10 -5
-18 -1 -8 -8 -42 -15 -75 -19 -86 -19 -88 -21 -220 -1 -66 4 -154 11 -195 15
-93 49 -221 62 -237 6 -7 7 -13 4 -13 -4 0 -1 -10 6 -22 7 -13 13 -25 13 -28
2 -19 93 -175 128 -221 23 -31 51 -69 62 -84 11 -15 25 -32 30 -39 6 -6 24
-29 40 -51 17 -22 32 -42 35 -45 3 -3 62 -79 130 -170 101 -134 345 -454 377
-495 18 -22 78 -101 85 -110 4 -5 27 -35 50 -65 24 -30 77 -100 117 -155 96
-129 132 -163 167 -159 15 1 35 11 44 21 16 17 246 315 450 583 76 100 165
217 188 245 18 22 98 129 112 149 8 11 20 25 27 29 7 4 13 14 13 22 0 7 4 15
8 17 4 2 37 41 72 88 35 47 68 87 72 88 4 2 8 8 8 13 0 6 9 20 21 32 31 33
123 176 157 243 93 184 134 358 132 548 0 61 -2 120 -4 131 -16 102 -39 195
-67 275 -26 71 -90 204 -101 208 -4 2 -8 8 -8 13 0 14 -57 97 -110 160 -73 87
-154 162 -244 226 -17 12 -35 26 -41 31 -5 4 -17 11 -25 15 -8 4 -33 18 -55
32 -40 24 -48 28 -128 63 -44 20 -157 59 -195 67 -12 3 -31 7 -43 10 -11 2
-28 6 -37 9 -44 14 -364 31 -375 20z m209 -759 c18 -3 59 -16 92 -30 194 -79
308 -238 317 -445 5 -104 -5 -153 -51 -248 -35 -73 -107 -157 -169 -197 -107
-69 -180 -89 -309 -83 -55 3 -114 11 -131 18 -16 7 -36 14 -42 16 -58 11 -192
130 -239 210 -89 152 -92 350 -6 508 54 100 205 220 302 242 91 20 155 22 236
9z"/>
<path d="M5066 4715 c-159 -51 -301 -102 -315 -112 -115 -84 -48 -281 93 -276
17 1 116 29 220 63 105 34 197 64 205 65 9 2 16 4 16 4 0 1 42 16 94 34 78 26
99 38 125 70 26 33 30 46 30 93 -1 39 -7 64 -21 82 -31 43 -82 72 -122 71 -20
0 -166 -42 -325 -94z"/>
<path d="M935 4773 c-34 -18 -51 -37 -66 -73 -22 -51 -21 -81 5 -134 21 -44
33 -55 73 -71 26 -11 50 -20 53 -20 8 -1 83 -26 105 -35 11 -4 49 -17 85 -28
36 -11 124 -39 195 -62 165 -54 206 -53 263 8 62 65 57 156 -10 219 -29 28
-587 213 -638 213 -19 -1 -48 -8 -65 -17z"/>
<path d="M4862 3906 c-101 -46 -121 -175 -39 -253 44 -42 45 -42 237 -58 30
-2 78 -7 105 -10 193 -24 287 -30 368 -26 41 2 105 67 112 115 16 99 -64 185
-175 188 -15 0 -116 11 -215 23 -27 4 -70 8 -95 11 -25 2 -58 6 -75 9 -97 14
-192 15 -223 1z"/>
<path d="M1467 3894 c-1 -1 -22 -3 -47 -5 -25 -1 -55 -6 -68 -11 -17 -6 -21
-5 -16 4 4 6 3 9 -2 6 -5 -3 -38 -9 -74 -13 -36 -3 -81 -8 -100 -10 -95 -10
-159 -16 -200 -20 -109 -9 -143 -23 -183 -77 -27 -36 -34 -109 -14 -151 27
-56 72 -86 134 -89 38 -2 174 9 224 17 15 3 60 7 100 10 41 3 90 7 109 10 19
2 66 7 104 10 88 7 139 35 173 93 20 34 24 52 20 87 -5 48 -48 115 -73 115 -7
0 -14 4 -14 9 0 7 -66 21 -73 15z"/>
<path d="M4650 3216 c-108 -49 -136 -169 -58 -250 13 -13 100 -67 193 -121
183 -104 248 -142 280 -159 11 -6 22 -13 25 -16 3 -3 21 -12 40 -21 56 -25
120 -15 177 27 57 43 62 144 10 206 -18 22 -180 120 -387 236 -25 13 -75 43
-112 64 -72 42 -126 53 -168 34z"/>
<path d="M1630 3197 c0 -6 -3 -7 -7 -4 -3 4 -13 1 -22 -7 -9 -7 -41 -27 -71
-43 -30 -16 -74 -42 -97 -56 -24 -15 -45 -27 -47 -27 -3 0 -46 -25 -96 -55
-50 -30 -93 -55 -96 -55 -3 0 -29 -16 -58 -35 -110 -73 -116 -200 -13 -264 52
-32 113 -30 178 5 30 16 56 32 57 37 2 4 7 7 12 7 9 0 382 213 421 241 61 43
78 147 33 206 -14 18 -37 39 -52 47 -32 16 -142 19 -142 3z"/>
<path d="M1487 1664 c-1 -1 -65 -5 -142 -8 -77 -4 -151 -8 -165 -10 -14 -2
-45 -7 -70 -10 -46 -6 -78 -11 -140 -22 -19 -4 -42 -8 -50 -9 -43 -7 -221 -51
-260 -65 -14 -4 -52 -16 -85 -26 -33 -9 -66 -22 -72 -27 -7 -5 -13 -7 -13 -4
0 9 -122 -44 -142 -61 -23 -19 -32 -66 -17 -93 30 -57 309 -336 459 -459 30
-25 57 -47 60 -50 28 -30 317 -231 425 -295 185 -109 413 -218 605 -289 41
-16 83 -32 92 -37 20 -10 13 -19 111 146 164 276 387 548 630 768 42 39 85 76
95 82 9 7 35 29 56 49 22 20 44 36 48 36 50 0 -108 86 -299 163 -108 44 -281
103 -325 111 -13 3 -23 5 -23 6 0 1 -7 3 -15 5 -8 1 -35 8 -60 15 -25 7 -54
13 -65 15 -11 1 -36 6 -55 10 -19 5 -39 9 -45 10 -10 1 -84 12 -140 21 -75 12
-391 34 -398 28z"/>
<path d="M4857 1664 c-1 -1 -63 -5 -137 -9 -74 -4 -137 -8 -140 -10 -3 -2 -35
-6 -72 -9 -37 -4 -77 -9 -90 -11 -13 -3 -50 -10 -83 -15 -33 -6 -73 -15 -90
-20 -16 -5 -41 -11 -55 -14 -38 -6 -240 -64 -280 -80 -19 -8 -66 -26 -105 -41
-77 -29 -287 -125 -295 -134 -3 -3 -39 -24 -80 -45 -263 -137 -567 -382 -778
-626 -17 -19 -41 -46 -53 -60 -42 -47 -189 -248 -189 -258 0 -5 -7 -16 -17
-23 -9 -8 -22 -27 -30 -44 -8 -16 -29 -54 -48 -84 -19 -30 -31 -59 -28 -63 3
-5 7 -7 10 -4 3 2 22 -2 44 -9 21 -8 39 -12 39 -10 0 2 15 -1 33 -6 17 -6 48
-12 67 -14 19 -2 46 -6 60 -9 52 -11 77 -15 129 -21 30 -4 61 -8 70 -10 141
-27 693 -27 891 -1 26 4 111 16 145 21 151 23 368 73 485 113 47 16 90 30 95
32 6 1 20 6 33 11 13 5 27 9 31 9 4 0 68 24 142 54 190 75 505 231 549 271 9
8 20 15 25 15 14 0 218 138 325 219 171 130 234 186 395 346 188 188 205 208
205 253 0 59 -33 82 -185 130 -71 22 -141 43 -155 47 -14 3 -47 12 -75 19 -27
8 -68 17 -90 22 -22 4 -42 8 -45 9 -3 0 -27 4 -53 9 -27 4 -56 9 -65 11 -10 1
-42 6 -73 9 -31 4 -67 9 -79 11 -29 6 -379 23 -383 19z"/>
</g>
</svg>
